# xmcd
#
# Track frame offsets:
#	150
#	21282
#	39081
#	59074
#	73382
#	90725
#	107565
#	122742
#	139528
#	155789
#	173853
#
# Disc length: 2917 seconds
#
# Revision: 0
# Processed by: cddbd v1.5.2PL0 Copyright (c) Steve Scherf et al.
# Submitted via: EZCDAudioConverter 3.1.2.1
#
DISCID=9a0b630b
DTITLE=Sam Riggs - Breathless
DYEAR=2016
DGENRE=Country
TTITLE0=The Lucky Ones
TTITLE1=Gravity
TTITLE2=The Heartbreak Girl
TTITLE3=Wake The Dead
TTITLE4=Breathless
TTITLE5=Secondhand Smoke
TTITLE6=Burn Me Down
TTITLE7=High On A Country Song
TTITLE8=To Save Something You Love
TTITLE9=One More Chance To Stay
TTITLE10=Secondhand Smoke (Arcoustic)
EXTD=
EXTT0=
EXTT1=
EXTT2=
EXTT3=
EXTT4=
EXTT5=
EXTT6=
EXTT7=
EXTT8=
EXTT9=
EXTT10=
PLAYORDER=
